<?xml version="1.0" encoding="UTF-8"?><svg id="a" xmlns="http://www.w3.org/2000/svg" viewBox="0 0 64 64"><defs><style>.b{fill:#1d1d1b;}</style></defs><path class="b" d="M22.56,22.05c-.02-1.32.23-2.57.64-3.8.69-2.03,1.76-3.78,3.55-5.03,1.42-.99,3.02-1.46,4.73-1.55,2.4-.12,4.71.23,6.87,1.34,1.75.9,3.01,2.25,3.49,4.21.37,1.51.2,2.98-.56,4.35-.73,1.32-1.83,2-3.36,2-1.53,0-3-.21-4.4-.86-.09-.04-.26-.03-.35.02-1.58,1.04-3.34,1.48-5.19,1.63-.34.03-.67.05-1.12.09.28.39.52.73.78,1.05.03.04.18.02.27,0,2.64-.93,5.34-1.07,8.08-.63,2.69.43,4.9,1.71,6.58,3.83,1.32,1.66,1.76,3.61,1.58,5.71-.03.36-.11.71-.14,1.07,0,.1.02.25.1.31,1.11.93,2.15,1.93,2.99,3.2.06-.25.13-.45.15-.64,0-.07-.06-.18-.13-.22-.72-.49-1.03-1.17-.88-2.01.14-.82.65-1.33,1.45-1.58.08-.02.18-.18.18-.28-.04-.86-.07-1.73-.15-2.59-.16-1.8-.34-3.6-.51-5.39-.29-3.12-.59-6.23-.88-9.35-.14-1.46-.3-2.92-.41-4.38-.04-.5.02-1.04.15-1.52.29-1.11,1.23-1.75,2.48-1.75,1.35,0,2.25.86,2.32,2.36.04.81-.08,1.63-.14,2.45-.18,2.25-.36,4.5-.56,6.74-.2,2.33-.41,4.67-.64,7-.21,2.1-.44,4.2-.67,6.3-.04.32.03.49.33.67.73.43,1.03,1.13.9,1.96-.13.82-.63,1.36-1.43,1.58-.25.07-.32.17-.34.42-.04.56-.11,1.11-.21,1.66-.07.37-.02.7.1,1.06.97,2.75,1.46,5.58,1.36,8.5-.11,2.92-.84,5.66-2.62,8.04-1.39,1.85-3.22,3.12-5.3,4.08-1.83.84-3.76,1.3-5.74,1.5-2.98.3-5.96.29-8.89-.51-2.54-.69-4.84-1.85-6.75-3.69-2.23-2.14-3.59-4.74-3.95-7.83-.25-2.17.03-4.26,1.12-6.19.22-.4.53-.75.77-1.14.09-.14.17-.34.14-.5-.23-1.29-.32-2.59-.24-3.89.29-5.01,2.16-9.23,6.17-12.39.02-.01.03-.03.07-.07-.63-.96-1.12-1.98-1.33-3.15-.59-.09-1.18-.17-1.77-.28-2.49-.46-4.88-1.2-6.96-2.71-1.68-1.21-2.81-2.79-3.18-4.87-.32-1.79.11-3.4,1.07-4.91,1.28-2.02,3.08-3.44,5.2-4.5,2.09-1.05,4.32-1.66,6.64-1.88,1.37-.13,2.75-.2,4.13-.21,1.75-.02,3.5-.01,5.25.1,1.73.11,3.46.3,5.18.56,1.72.26,3.4.7,5.12.94,2.11.31,4.2.18,6.16-.75,1.52-.73,2.55-1.87,2.79-3.6.07-.5.01-1.03,0-1.54,0-.13-.03-.25-.04-.38.04,0,.08-.01.13-.02.11.74.3,1.47.33,2.21.1,2.86-1.28,4.78-4.15,5.88-1.32.51-2.69.73-4.09.86-1.91.18-3.83.14-5.74-.01-1.54-.13-3.07-.33-4.6-.48-1.81-.18-3.61-.37-5.42-.48-1.46-.09-2.93-.13-4.4-.11-1.95.02-3.89.18-5.75.81-2.65.9-4.44,2.64-5.25,5.33-.23.76-.14,1.56.14,2.31.78,2.06,2.25,3.48,4.22,4.42,1.22.58,2.52.93,3.86,1.08.22.03.45,0,.71,0ZM19.07,46.57s-.08.04-.1.06c-.14.18-.28.37-.4.56-.84,1.27-1.28,2.66-1.19,4.18.1,1.65.64,3.16,1.54,4.54,1.56,2.39,3.76,4,6.34,5.12,1.58.69,3.23,1.13,4.93,1.41,2.09.34,4.19.46,6.28.21,3.36-.39,6.04-2.04,8.04-4.74,2.09-2.82,2.95-6.01,2.74-9.5-.02-.29-.07-.59-.11-.88-.04-.28-.09-.56-.14-.8-.55,1.16-1.06,2.34-1.65,3.48-1,1.91-2.27,3.61-3.93,5-2,1.69-4.31,2.61-6.92,2.71-.78.03-1.6.04-2.35-.15-1.22-.32-2.43-.72-3.58-1.24-4.2-1.86-7.32-4.84-9.15-9.1-.12-.29-.24-.58-.36-.88ZM30.11,52.56c.08-.06.14-.1.2-.15,1.28-1.08,2.44-2.26,3.47-3.58,1.11-1.42,2.04-2.95,2.47-4.73.14-.58.23-1.17.17-1.76-.62-.03-1.21-.04-1.8-.1-1.04-.11-2.01-.43-2.79-1.17-.99-.95-1.3-2.11-.91-3.42.34-1.14,1.08-1.96,2.28-2.15,1.38-.21,2.57.31,3.44,1.37.8.97,1.24,2.15,1.45,3.4.07.39.22.51.62.44.21-.04.44-.08.63-.18,1-.51,1.58-1.39,2.14-2.37-.63-.51-1.22-1.02-1.84-1.48-1.89-1.43-4.01-2.43-6.17-3.38-2.36-1.04-4.81-1.88-6.9-3.49-1.73,1.38-2.94,3.13-3.73,5.18-.86,2.21-1.11,4.5-.93,6.88.14-.02.24-.04.35-.06,1.4-.25,2.8-.31,4.2-.03,2.32.47,3.72,1.87,4.2,4.18.32,1.51.21,3.03-.08,4.53-.13.68-.31,1.35-.48,2.06ZM29.26,54.31c1.29.61,2.6,1.09,4,1.3,1.94.3,3.79.08,5.53-.85,1.86-1,3.19-2.53,4.29-4.28,1.31-2.08,2.13-4.37,2.74-6.73.03-.11-.01-.26-.08-.35-.67-.94-1.34-1.89-2.04-2.81-.35-.47-.77-.89-1.18-1.35-.1.15-.17.26-.25.37-1.04,1.43-2.14,2.76-4.12,2.81-.37,1.88-.73,2.89-1.53,4.25-1.41,2.39-3.31,4.34-5.41,6.11-.63.53-1.28,1.02-1.95,1.54ZM32.11,21.78c-.08-.06-.12-.09-.16-.13-.87-.65-1.23-1.53-1.05-2.59.23-1.4.84-2.27,2.05-2.62,1.19-.34,2.24.2,2.54,1.4.32,1.23-.01,2.33-.78,3.32-.18.24-.39.45-.6.69.07.04.11.06.15.08,1.34.67,2.78.83,4.25.7.71-.06,1.32-.39,1.76-.96.78-1.02.87-2.18.57-3.37-.54-2.15-1.97-3.53-3.95-4.39-1.63-.7-3.35-.9-5.1-.72-1.35.14-2.63.57-3.6,1.55-2.17,2.18-2.49,4.83-1.85,7.71,1.45.1,2.82.2,4.2.05.59-.06,1.12-.25,1.59-.74ZM28.3,53.67c.1-.12.2-.21.26-.32.19-.32.38-.64.53-.97.95-2.15.88-4.32-.02-6.45-.51-1.2-1.44-1.99-2.72-2.33-1.36-.36-2.66-.12-3.93.42-.08.03-.14.23-.12.33.49,2.07,1.32,3.99,2.54,5.74.95,1.36,2.07,2.54,3.45,3.58ZM30.5,27.78s-.02.1-.02.15c.86.43,1.7.88,2.57,1.3,2.98,1.42,5.9,2.95,8.65,4.8.29.19.57.39.88.61.19-1.54.02-2.97-.74-4.29-.87-1.51-2.27-2.31-3.91-2.69-1.79-.41-3.62-.48-5.44-.25-.67.08-1.32.25-1.98.37ZM35.51,40.94c.24-.04.61-.09.98-.14.24-.03.29-.17.23-.37-.17-.56-.31-1.13-.53-1.68-.24-.6-.59-1.14-1.11-1.55-.56-.43-1.58-.5-2.06-.13-.91.7-1.03,1.88-.26,2.74.7.78,1.6,1.1,2.75,1.13ZM34.21,18.88c-.05-.2-.09-.48-.19-.74-.17-.42-.52-.54-.86-.25-.31.26-.6.59-.78.95-.49.97-.36,1.33.36,1.87.06.04.11.11.16.16.1.1.19.13.33.02.61-.5.92-1.14,1-2.01Z"/></svg>